<?xml version="1.0" encoding="utf-8"?>
<!-- Generator: Adobe Illustrator 21.0.2, SVG Export Plug-In . SVG Version: 6.00 Build 0)  -->
<svg version="1.1" id="Layer_1" xmlns="http://www.w3.org/2000/svg" xmlns:xlink="http://www.w3.org/1999/xlink" x="0px" y="0px"
	 viewBox="0 0 207.3 55" style="enable-background:new 0 0 207.3 55;" xml:space="preserve">
<style type="text/css">
	.st0{fill:#232642;}
</style>
<g>
	<path class="st0" d="M91.4,8c0.9,0.8,1.4,2.1,1.4,3.8v6.4h-3.1v-1.4c-0.6,1.1-1.8,1.6-3.4,1.6c-0.9,0-1.6-0.1-2.3-0.4
		c-0.6-0.3-1.1-0.7-1.5-1.2C82.2,16.2,82,15.7,82,15c0-1.1,0.4-1.9,1.2-2.5s2-0.9,3.7-0.9h2.6c0-0.7-0.2-1.3-0.7-1.6
		c-0.4-0.4-1.1-0.6-2-0.6c-0.6,0-1.2,0.1-1.8,0.3c-0.6,0.2-1.1,0.4-1.5,0.8l-1.2-2.3c0.6-0.4,1.4-0.8,2.2-1c0.9-0.2,1.7-0.4,2.7-0.4
		C89.1,6.8,90.4,7.2,91.4,8z M88.6,15.8c0.4-0.3,0.7-0.6,0.9-1.1v-1.2h-2.2c-1.3,0-2,0.4-2,1.3c0,0.4,0.2,0.8,0.5,1s0.8,0.4,1.4,0.4
		C87.6,16.2,88.1,16.1,88.6,15.8z"/>
	<path class="st0" d="M105.3,7.5c0.9,0.5,1.5,1.2,2,2c0.5,0.9,0.7,1.9,0.7,3.1s-0.2,2.2-0.7,3.1c-0.5,0.9-1.2,1.6-2,2
		c-0.9,0.5-1.8,0.7-2.9,0.7c-1.4,0-2.6-0.5-3.4-1.4v5.3h-3.3V7h3.1v1.3c0.8-1,2-1.5,3.5-1.5C103.4,6.8,104.4,7,105.3,7.5z
		 M103.9,14.9c0.5-0.6,0.8-1.3,0.8-2.3s-0.3-1.7-0.8-2.3c-0.5-0.6-1.2-0.9-2.1-0.9s-1.5,0.3-2.1,0.9c-0.5,0.6-0.8,1.3-0.8,2.3
		s0.3,1.7,0.8,2.3c0.5,0.6,1.2,0.9,2.1,0.9S103.4,15.4,103.9,14.9z"/>
	<path class="st0" d="M118.6,8c0.9,0.8,1.4,2.1,1.4,3.8v6.4h-3.1v-1.4c-0.6,1.1-1.8,1.6-3.4,1.6c-0.9,0-1.6-0.1-2.3-0.4
		c-0.6-0.3-1.1-0.7-1.5-1.2c-0.3-0.5-0.5-1.1-0.5-1.8c0-1.1,0.4-1.9,1.2-2.5s2-0.9,3.7-0.9h2.6c0-0.7-0.2-1.3-0.7-1.6
		c-0.4-0.4-1.1-0.6-2-0.6c-0.6,0-1.2,0.1-1.8,0.3c-0.6,0.2-1.1,0.4-1.5,0.8l-1.2-2.3c0.6-0.4,1.4-0.8,2.2-1c0.9-0.2,1.7-0.4,2.7-0.4
		C116.3,6.8,117.7,7.2,118.6,8z M115.8,15.8c0.4-0.3,0.7-0.6,0.9-1.1v-1.2h-2.2c-1.3,0-2,0.4-2,1.3c0,0.4,0.2,0.8,0.5,1
		s0.8,0.4,1.4,0.4C114.9,16.2,115.4,16.1,115.8,15.8z"/>
	<path class="st0" d="M125.3,17.7c-1-0.5-1.7-1.2-2.2-2.1c-0.5-0.9-0.8-1.9-0.8-3s0.3-2.1,0.8-3c0.5-0.9,1.3-1.6,2.2-2.1
		c1-0.5,2-0.7,3.2-0.7c1.2,0,2.2,0.2,3.1,0.7c0.9,0.5,1.5,1.2,1.9,2.1l-2.5,1.4c-0.6-1-1.4-1.6-2.5-1.6c-0.9,0-1.6,0.3-2.1,0.8
		c-0.6,0.6-0.8,1.3-0.8,2.3c0,1,0.3,1.7,0.8,2.3c0.6,0.6,1.3,0.8,2.1,0.8c1.1,0,2-0.5,2.5-1.6l2.5,1.4c-0.4,0.9-1.1,1.6-1.9,2.1
		s-1.9,0.8-3.1,0.8C127.4,18.4,126.3,18.2,125.3,17.7z"/>
	<path class="st0" d="M135.7,4.9c-0.4-0.3-0.6-0.8-0.6-1.3c0-0.5,0.2-1,0.6-1.3c0.4-0.3,0.9-0.5,1.5-0.5s1.1,0.2,1.5,0.5
		s0.6,0.8,0.6,1.3c0,0.5-0.2,1-0.6,1.4c-0.4,0.4-0.9,0.5-1.5,0.5S136.1,5.2,135.7,4.9z M135.5,7h3.3v11.3h-3.3V7z"/>
	<path class="st0" d="M149.1,17.7c-0.3,0.2-0.7,0.4-1.2,0.5c-0.5,0.1-1,0.2-1.5,0.2c-1.3,0-2.4-0.3-3.1-1c-0.7-0.7-1.1-1.7-1.1-3
		V9.7h-1.7V7.2h1.7V4.5h3.3v2.8h2.8v2.5h-2.8v4.6c0,0.5,0.1,0.8,0.4,1.1c0.2,0.3,0.6,0.4,1,0.4c0.5,0,1-0.1,1.3-0.4L149.1,17.7z"/>
	<path class="st0" d="M159.6,8c0.9,0.8,1.4,2.1,1.4,3.8v6.4h-3.1v-1.4c-0.6,1.1-1.8,1.6-3.4,1.6c-0.9,0-1.6-0.1-2.3-0.4
		c-0.6-0.3-1.1-0.7-1.5-1.2c-0.3-0.5-0.5-1.1-0.5-1.8c0-1.1,0.4-1.9,1.2-2.5s2-0.9,3.7-0.9h2.6c0-0.7-0.2-1.3-0.7-1.6
		c-0.4-0.4-1.1-0.6-2-0.6c-0.6,0-1.2,0.1-1.8,0.3c-0.6,0.2-1.1,0.4-1.5,0.8l-1.2-2.3c0.6-0.4,1.4-0.8,2.2-1c0.9-0.2,1.7-0.4,2.7-0.4
		C157.3,6.8,158.6,7.2,159.6,8z M156.8,15.8c0.4-0.3,0.7-0.6,0.9-1.1v-1.2h-2.2c-1.3,0-2,0.4-2,1.3c0,0.4,0.2,0.8,0.5,1
		s0.8,0.4,1.4,0.4C155.8,16.2,156.3,16.1,156.8,15.8z"/>
	<path class="st0" d="M171.2,17.7c-0.3,0.2-0.7,0.4-1.2,0.5c-0.5,0.1-1,0.2-1.5,0.2c-1.3,0-2.4-0.3-3.1-1c-0.7-0.7-1.1-1.7-1.1-3
		V9.7h-1.7V7.2h1.7V4.5h3.3v2.8h2.8v2.5h-2.8v4.6c0,0.5,0.1,0.8,0.4,1.1c0.2,0.3,0.6,0.4,1,0.4c0.5,0,1-0.1,1.3-0.4L171.2,17.7z"/>
	<path class="st0" d="M173.2,4.9c-0.4-0.3-0.6-0.8-0.6-1.3c0-0.5,0.2-1,0.6-1.3c0.4-0.3,0.9-0.5,1.5-0.5s1.1,0.2,1.5,0.5
		c0.4,0.3,0.6,0.8,0.6,1.3c0,0.5-0.2,1-0.6,1.4c-0.4,0.4-0.9,0.5-1.5,0.5S173.6,5.2,173.2,4.9z M173.1,7h3.3v11.3h-3.3V7z"/>
	<path class="st0" d="M181.6,17.7c-0.9-0.5-1.7-1.2-2.2-2.1c-0.5-0.9-0.8-1.9-0.8-3s0.3-2.1,0.8-3c0.5-0.9,1.3-1.6,2.2-2.1
		c0.9-0.5,2-0.7,3.2-0.7s2.3,0.2,3.2,0.7c0.9,0.5,1.7,1.2,2.2,2.1c0.5,0.9,0.8,1.9,0.8,3s-0.3,2.1-0.8,3s-1.3,1.6-2.2,2.1
		c-0.9,0.5-2,0.7-3.2,0.7S182.5,18.2,181.6,17.7z M186.8,14.9c0.5-0.6,0.8-1.3,0.8-2.3s-0.3-1.7-0.8-2.3c-0.5-0.6-1.2-0.9-2.1-0.9
		s-1.5,0.3-2.1,0.9c-0.5,0.6-0.8,1.3-0.8,2.3s0.3,1.7,0.8,2.3c0.5,0.6,1.2,0.9,2.1,0.9S186.3,15.4,186.8,14.9z"/>
	<path class="st0" d="M203.4,8c0.9,0.8,1.3,2.1,1.3,3.7v6.5h-3.3v-6c0-0.9-0.2-1.6-0.6-2c-0.4-0.4-1-0.7-1.7-0.7
		c-0.8,0-1.5,0.3-2,0.8c-0.5,0.5-0.7,1.3-0.7,2.3v5.6h-3.3V7h3.1v1.3c0.4-0.5,1-0.8,1.6-1.1c0.6-0.3,1.4-0.4,2.1-0.4
		C201.4,6.8,202.5,7.2,203.4,8z"/>
	<path class="st0" d="M94.4,32.2v9.4c0,2.1-0.5,3.6-1.6,4.6s-2.7,1.5-4.7,1.5c-1.1,0-2.1-0.1-3.1-0.4s-1.8-0.7-2.4-1.2l1.3-2.4
		c0.5,0.4,1.1,0.7,1.8,0.9c0.7,0.2,1.5,0.3,2.2,0.3c1.1,0,2-0.3,2.5-0.8c0.5-0.5,0.8-1.3,0.8-2.3v-0.5c-0.9,0.9-2,1.4-3.6,1.4
		c-1,0-2-0.2-2.8-0.7c-0.9-0.5-1.5-1.1-2-1.9c-0.5-0.8-0.8-1.8-0.8-2.9s0.3-2,0.8-2.9c0.5-0.8,1.2-1.5,2-1.9
		c0.9-0.5,1.8-0.7,2.8-0.7c1.6,0,2.9,0.5,3.7,1.6v-1.4H94.4z M90.4,39.4c0.6-0.5,0.8-1.2,0.8-2s-0.3-1.5-0.8-2
		c-0.6-0.5-1.3-0.8-2.1-0.8c-0.9,0-1.6,0.3-2.1,0.8c-0.6,0.5-0.8,1.2-0.8,2s0.3,1.5,0.8,2c0.6,0.5,1.3,0.8,2.1,0.8
		C89.1,40.2,89.8,40,90.4,39.4z"/>
	<path class="st0" d="M108.5,38.7h-8.5c0.2,0.7,0.5,1.3,1.1,1.7c0.6,0.4,1.3,0.6,2.1,0.6c0.6,0,1.1-0.1,1.6-0.3
		c0.5-0.2,0.9-0.5,1.3-0.8l1.7,1.9c-1.1,1.2-2.6,1.8-4.7,1.8c-1.3,0-2.4-0.2-3.4-0.7c-1-0.5-1.7-1.2-2.3-2.1c-0.5-0.9-0.8-1.9-0.8-3
		c0-1.1,0.3-2.1,0.8-3c0.5-0.9,1.2-1.6,2.2-2.1c0.9-0.5,1.9-0.7,3.1-0.7c1.1,0,2.1,0.2,3,0.7c0.9,0.5,1.6,1.2,2.1,2
		c0.5,0.9,0.8,1.9,0.8,3.1C108.5,37.9,108.5,38.2,108.5,38.7z M100.8,35.1c-0.5,0.4-0.8,1-0.9,1.7h5.6c-0.1-0.7-0.4-1.3-0.9-1.7
		c-0.5-0.4-1.1-0.6-1.8-0.6C101.9,34.5,101.3,34.7,100.8,35.1z"/>
	<path class="st0" d="M121,33.2c0.9,0.8,1.3,2.1,1.3,3.7v6.5H119v-6c0-0.9-0.2-1.6-0.6-2c-0.4-0.4-1-0.7-1.7-0.7
		c-0.8,0-1.5,0.3-2,0.8c-0.5,0.5-0.7,1.3-0.7,2.3v5.6h-3.3V32.2h3.1v1.3c0.4-0.5,1-0.8,1.6-1.1c0.6-0.3,1.4-0.4,2.1-0.4
		C119,32,120.1,32.4,121,33.2z"/>
	<path class="st0" d="M136.4,38.7h-8.5c0.2,0.7,0.5,1.3,1.1,1.7c0.6,0.4,1.3,0.6,2.1,0.6c0.6,0,1.1-0.1,1.6-0.3
		c0.5-0.2,0.9-0.5,1.3-0.8l1.7,1.9c-1.1,1.2-2.6,1.8-4.7,1.8c-1.3,0-2.4-0.2-3.4-0.7c-1-0.5-1.7-1.2-2.3-2.1c-0.5-0.9-0.8-1.9-0.8-3
		c0-1.1,0.3-2.1,0.8-3c0.5-0.9,1.2-1.6,2.2-2.1c0.9-0.5,1.9-0.7,3.1-0.7c1.1,0,2.1,0.2,3,0.7c0.9,0.5,1.6,1.2,2.1,2
		c0.5,0.9,0.8,1.9,0.8,3.1C136.4,37.9,136.4,38.2,136.4,38.7z M128.7,35.1c-0.5,0.4-0.8,1-0.9,1.7h5.6c-0.1-0.7-0.4-1.3-0.9-1.7
		c-0.5-0.4-1.1-0.6-1.8-0.6C129.8,34.5,129.2,34.7,128.7,35.1z"/>
	<path class="st0" d="M143.3,32.4c0.7-0.3,1.4-0.4,2.3-0.4v3c-0.4,0-0.6,0-0.7,0c-0.9,0-1.7,0.3-2.2,0.8c-0.5,0.5-0.8,1.3-0.8,2.4
		v5.3h-3.3V32.2h3.1v1.5C142.1,33.1,142.6,32.7,143.3,32.4z"/>
	<path class="st0" d="M156.1,33.2c0.9,0.8,1.4,2.1,1.4,3.8v6.4h-3.1V42c-0.6,1.1-1.8,1.6-3.4,1.6c-0.9,0-1.6-0.1-2.3-0.4
		c-0.6-0.3-1.1-0.7-1.5-1.2c-0.3-0.5-0.5-1.1-0.5-1.8c0-1.1,0.4-1.9,1.2-2.5s2-0.9,3.7-0.9h2.6c0-0.7-0.2-1.3-0.7-1.6
		c-0.4-0.4-1.1-0.6-2-0.6c-0.6,0-1.2,0.1-1.8,0.3c-0.6,0.2-1.1,0.4-1.5,0.8l-1.2-2.3c0.6-0.4,1.4-0.8,2.2-1c0.9-0.2,1.7-0.4,2.7-0.4
		C153.8,32,155.2,32.4,156.1,33.2z M153.3,41c0.4-0.3,0.7-0.6,0.9-1.1v-1.2H152c-1.3,0-2,0.4-2,1.3c0,0.4,0.2,0.8,0.5,1
		s0.8,0.4,1.4,0.4C152.4,41.4,152.9,41.3,153.3,41z"/>
	<path class="st0" d="M167.7,42.9c-0.3,0.2-0.7,0.4-1.2,0.5c-0.5,0.1-1,0.2-1.5,0.2c-1.3,0-2.4-0.3-3.1-1c-0.7-0.7-1.1-1.7-1.1-3
		v-4.6h-1.7v-2.5h1.7v-2.8h3.3v2.8h2.8v2.5h-2.8v4.6c0,0.5,0.1,0.8,0.4,1.1c0.2,0.3,0.6,0.4,1,0.4c0.5,0,1-0.1,1.3-0.4L167.7,42.9z"
		/>
	<path class="st0" d="M171.4,42.9c-0.9-0.5-1.7-1.2-2.2-2.1c-0.5-0.9-0.8-1.9-0.8-3s0.3-2.1,0.8-3c0.5-0.9,1.3-1.6,2.2-2.1
		c0.9-0.5,2-0.7,3.2-0.7c1.2,0,2.3,0.2,3.2,0.7c0.9,0.5,1.7,1.2,2.2,2.1c0.5,0.9,0.8,1.9,0.8,3s-0.3,2.1-0.8,3
		c-0.5,0.9-1.3,1.6-2.2,2.1c-0.9,0.5-2,0.7-3.2,0.7C173.4,43.6,172.4,43.4,171.4,42.9z M176.7,40.1c0.5-0.6,0.8-1.3,0.8-2.3
		s-0.3-1.7-0.8-2.3c-0.5-0.6-1.2-0.9-2.1-0.9c-0.8,0-1.5,0.3-2.1,0.9c-0.5,0.6-0.8,1.3-0.8,2.3s0.3,1.7,0.8,2.3
		c0.5,0.6,1.2,0.9,2.1,0.9C175.5,40.9,176.1,40.6,176.7,40.1z"/>
	<path class="st0" d="M187.7,32.4c0.7-0.3,1.4-0.4,2.3-0.4v3c-0.4,0-0.6,0-0.7,0c-0.9,0-1.7,0.3-2.2,0.8c-0.5,0.5-0.8,1.3-0.8,2.4
		v5.3H183V32.2h3.1v1.5C186.5,33.1,187,32.7,187.7,32.4z"/>
</g>
<g>
	<path class="st0" d="M29.2,30.5c1.4,2.2,2.1,4.8,2.1,7.8c0,4.3-1.3,7.8-4,10.4c-2.7,2.7-6.1,4-10.4,4c-4.2,0-7.7-1.4-10.4-4.1
		C3.7,46,2.4,42.5,2.4,38.3c0-2,0.2-4,0.8-6c0.5-2,1.6-5,3.3-9l8.7-21.6H30l-6.6,23.8C25.8,26.7,27.8,28.4,29.2,30.5z M64.6,30.5
		c1.4,2.2,2.1,4.8,2.1,7.8c0,4.3-1.4,7.8-4.1,10.4c-2.7,2.7-6.1,4-10.4,4c-4.2,0-7.7-1.4-10.4-4.1c-2.8-2.7-4.1-6.1-4.1-10.4
		c0-2,0.2-4,0.8-6c0.5-2,1.6-5,3.3-9l8.7-21.6h14.9l-6.6,23.8C61.2,26.7,63.2,28.4,64.6,30.5z"/>
</g>
</svg>
