<?xml version="1.0" encoding="utf-8"?>
<!-- Generator: Adobe Illustrator 21.0.2, SVG Export Plug-In . SVG Version: 6.00 Build 0)  -->
<svg version="1.1" xmlns="http://www.w3.org/2000/svg" xmlns:xlink="http://www.w3.org/1999/xlink" x="0px" y="0px"
	 viewBox="0 0 24.2 10.8" style="enable-background:new 0 0 24.2 10.8;" xml:space="preserve">
<style type="text/css">
	.st0{fill:#232642;}
</style>
<g id="Layer_1">
</g>
<g id="Layer_2">
	<path class="st0" d="M23.6,4.7L23.6,4.7c0.4,0.4,0.4,1,0,1.3l-4.2,4.2c-0.4,0.4-1,0.4-1.3,0l0,0c-0.4-0.4-0.4-1,0-1.3l3.6-3.6
		l-3.6-3.6c-0.4-0.4-0.4-1,0-1.3v0c0.4-0.4,1-0.4,1.3,0L23.6,4.7z"/>
	<path class="st0" d="M23.6,6L23.6,6"/>
	<path class="st0" d="M10,5.4L10,5.4c0-0.5,0.4-1,1-1h10.6c0.5,0,1,0.4,1,1v0c0,0.5-0.4,1-1,1H11C10.4,6.4,10,5.9,10,5.4z"/>
	<path class="st0" d="M6.6,6.4H1.1c-0.5,0-1-0.4-1-1v0c0-0.5,0.4-1,1-1h5.4c0.5,0,1,0.4,1,1v0C7.6,6,7.1,6.4,6.6,6.4z"/>
</g>
</svg>
