<?xml version="1.0" encoding="utf-8"?>
<!-- Generator: Adobe Illustrator 21.0.2, SVG Export Plug-In . SVG Version: 6.00 Build 0)  -->
<svg version="1.1" id="Layer_1" xmlns="http://www.w3.org/2000/svg" xmlns:xlink="http://www.w3.org/1999/xlink" x="0px" y="0px"
	 viewBox="0 0 403 277.8" style="enable-background:new 0 0 403 277.8;" xml:space="preserve">
<style type="text/css">
	.st0{fill:#232642;}
</style>
<g>
	<path class="st0" d="M32.2,35.3c1.4,2.2,2.1,4.8,2.1,7.8c0,4.3-1.3,7.8-4,10.4c-2.7,2.7-6.1,4-10.4,4c-4.2,0-7.7-1.4-10.4-4.1
		c-2.8-2.7-4.1-6.1-4.1-10.4c0-2,0.2-4,0.8-6c0.5-2,1.6-5,3.3-9l8.7-21.6H33l-6.6,23.8C28.8,31.4,30.8,33.1,32.2,35.3z M67.6,35.3
		c1.4,2.2,2.1,4.8,2.1,7.8c0,4.3-1.4,7.8-4.1,10.4c-2.7,2.7-6.1,4-10.4,4c-4.2,0-7.7-1.4-10.4-4.1c-2.8-2.7-4.1-6.1-4.1-10.4
		c0-2,0.2-4,0.8-6c0.5-2,1.6-5,3.3-9l8.7-21.6h14.9l-6.6,23.8C64.2,31.4,66.2,33.1,67.6,35.3z"/>
</g>
<g>
	<path class="st0" d="M135.7,19.5c-3-1.7-6.2-2.8-9.7-3.3v28h-8.1v-28c-3.5,0.5-6.7,1.6-9.7,3.3l-2.8-5.9c4.8-2.8,10.6-4.3,16.5-4.3
		c5.9,0,11.7,1.4,16.5,4.3L135.7,19.5z"/>
	<path class="st0" d="M169,29.1v15.1h-7.8V30.3c0-4.3-2-6.2-5.5-6.2c-3.8,0-6.5,2.3-6.5,7.1v13h-7.8V7.9h7.8v12.7
		c2.1-2.1,5.1-3.1,8.6-3.1C164.2,17.5,169,21.1,169,29.1z"/>
	<path class="st0" d="M196.7,35.9l4.2,4.4c-2.5,2.8-6.3,4.3-11.1,4.3c-9.3,0-15.4-5.7-15.4-13.6c0-7.9,6.1-13.6,14.4-13.6
		c7.6,0,13.9,4.9,13.9,13.3l-19.9,3.8c1.1,2.6,3.6,3.9,7.2,3.9C192.8,38.5,194.8,37.7,196.7,35.9z M182,30.3l13.1-2.5
		c-0.8-2.7-3.1-4.5-6.4-4.5C184.8,23.2,182.1,25.8,182,30.3z"/>
	<path class="st0" d="M219.4,41.8l2.6-5.5c2.4,1.5,6,2.5,9.4,2.5c3.6,0,5-0.9,5-2.4c0-4.3-16.3,0.1-16.3-10.4c0-5,4.6-8.5,12.5-8.5
		c3.7,0,7.8,0.8,10.4,2.3l-2.6,5.4c-2.7-1.5-5.3-2-7.8-2c-3.5,0-5,1.1-5,2.4c0,4.5,16.3,0.1,16.3,10.5c0,4.9-4.7,8.4-12.7,8.4
		C226.5,44.6,221.9,43.4,219.4,41.8z"/>
	<path class="st0" d="M264.8,42.9c-1.6,1.1-4,1.7-6.3,1.7c-6.4,0-10.1-3.2-10.1-9.5V12h7.8v6.4h6.7v5.9h-6.7v10.7
		c0,2.3,1.2,3.5,3.3,3.5c1.2,0,2.3-0.3,3.2-1L264.8,42.9z"/>
	<path class="st0" d="M295.7,17.9v26.4h-7.5v-3c-2,2.3-4.8,3.4-8.4,3.4c-7.6,0-13.5-5.3-13.5-13.6c0-8.3,5.9-13.6,13.5-13.6
		c3.3,0,6.1,1,8.1,3.2v-2.8H295.7z M288,31c0-4.6-3-7.3-6.8-7.3c-3.9,0-6.9,2.7-6.9,7.3s3,7.3,6.9,7.3C285,38.3,288,35.6,288,31z"/>
	<path class="st0" d="M319.5,17.5v7.1c-0.6,0-1.1-0.1-1.8-0.1c-4.3,0-7.2,2.3-7.2,7.3v12.4h-7.8V17.9h7.5v3.5
		C312.2,18.8,315.4,17.5,319.5,17.5z"/>
	<path class="st0" d="M340.4,42.9c-1.6,1.1-4,1.7-6.3,1.7c-6.4,0-10.1-3.2-10.1-9.5V12h7.8v6.4h6.7v5.9h-6.7v10.7
		c0,2.3,1.2,3.5,3.3,3.5c1.2,0,2.3-0.3,3.2-1L340.4,42.9z"/>
	<path class="st0" d="M358,9.9c0-2.4,2-4.3,4.8-4.3c2.9,0,4.9,1.8,4.9,4.1c0,2.5-2,4.4-4.9,4.4C359.9,14.2,358,12.3,358,9.9z
		 M358.9,17.9h7.8v26.4h-7.8V17.9z"/>
	<path class="st0" d="M371.4,41.8l2.6-5.5c2.4,1.5,6,2.5,9.4,2.5c3.6,0,5-0.9,5-2.4c0-4.3-16.3,0.1-16.3-10.4c0-5,4.6-8.5,12.5-8.5
		c3.7,0,7.8,0.8,10.4,2.3l-2.6,5.4c-2.7-1.5-5.3-2-7.8-2c-3.5,0-5,1.1-5,2.4c0,4.5,16.3,0.1,16.3,10.5c0,4.9-4.7,8.4-12.7,8.4
		C378.5,44.6,373.9,43.4,371.4,41.8z"/>
	<path class="st0" d="M152.2,90.9v14.6c0,7.7-4.5,12.2-12.5,12.2c-3.7,0-6.8-1-8.9-3.7c-2.1,2.6-5,3.7-8.9,3.7
		c-8.1,0-12.5-4.5-12.5-12.2V90.9h7.8v14c0,4.4,1.5,6.4,4.8,6.4s4.9-2,4.9-6.4v-14h7.8v14c0,4.4,1.6,6.4,4.9,6.4
		c3.3,0,4.8-2,4.8-6.4v-14H152.2z"/>
	<path class="st0" d="M186.7,102.1v15.1h-7.8v-13.9c0-4.3-2-6.2-5.5-6.2c-3.8,0-6.5,2.3-6.5,7.1v13h-7.8V80.9h7.8v12.7
		c2.1-2.1,5.1-3.1,8.6-3.1C181.9,90.5,186.7,94.1,186.7,102.1z"/>
	<path class="st0" d="M221.3,90.9v26.4h-7.5v-3c-2,2.3-4.8,3.4-8.4,3.4c-7.6,0-13.5-5.3-13.5-13.6c0-8.3,5.8-13.6,13.5-13.6
		c3.3,0,6.1,1,8.1,3.2v-2.8H221.3z M213.7,104c0-4.6-3-7.3-6.8-7.3c-3.9,0-6.9,2.7-6.9,7.3s3,7.3,6.9,7.3
		C210.7,111.3,213.7,108.6,213.7,104z"/>
	<path class="st0" d="M256,102.1v15.1h-7.8v-13.9c0-4.3-2-6.2-5.5-6.2c-3.8,0-6.5,2.3-6.5,7.1v13h-7.8V90.9h7.5v3.1
		c2.1-2.3,5.3-3.5,8.9-3.5C251.2,90.5,256,94.1,256,102.1z"/>
	<path class="st0" d="M279.2,115.9c-1.6,1.1-4,1.7-6.3,1.7c-6.4,0-10.1-3.2-10.1-9.5V85h7.8v6.4h6.7v5.9h-6.7v10.7
		c0,2.3,1.2,3.5,3.3,3.5c1.2,0,2.3-0.3,3.2-1L279.2,115.9z"/>
	<path class="st0" d="M107,187.8l2.6-5.5c2.4,1.5,6,2.5,9.4,2.5c3.6,0,5-0.9,5-2.4c0-4.3-16.3,0.1-16.3-10.4c0-5,4.6-8.5,12.5-8.5
		c3.7,0,7.8,0.8,10.4,2.3l-2.6,5.4c-2.7-1.5-5.3-2-7.8-2c-3.5,0-5,1.1-5,2.5c0,4.5,16.3,0.1,16.3,10.5c0,4.9-4.7,8.4-12.7,8.4
		C114.1,190.6,109.5,189.4,107,187.8z"/>
	<path class="st0" d="M152.4,188.9c-1.6,1.1-4,1.7-6.3,1.7c-6.4,0-10.1-3.2-10.1-9.5V158h7.8v6.4h6.7v5.9h-6.7v10.7
		c0,2.3,1.2,3.5,3.3,3.5c1.2,0,2.3-0.3,3.2-1L152.4,188.9z"/>
	<path class="st0" d="M153.9,177c0-7.9,6.3-13.6,14.8-13.6c8.5,0,14.8,5.6,14.8,13.6s-6.2,13.6-14.8,13.6
		C160.2,190.6,153.9,185,153.9,177z M175.6,177c0-4.6-3-7.3-6.8-7.3c-3.9,0-6.9,2.7-6.9,7.3s3,7.3,6.9,7.3
		C172.6,184.3,175.6,181.6,175.6,177z"/>
	<path class="st0" d="M218,177c0,8.3-5.9,13.6-13.4,13.6c-3.3,0-6.1-1-8.1-3.2v12.3h-7.8v-35.9h7.5v3c2-2.3,4.9-3.4,8.5-3.4
		C212.1,163.5,218,168.8,218,177z M210.1,177c0-4.6-3-7.3-6.9-7.3s-6.9,2.7-6.9,7.3s3,7.3,6.9,7.3S210.1,181.6,210.1,177z"/>
	<path class="st0" d="M220.5,187.8l2.6-5.5c2.4,1.5,6,2.5,9.4,2.5c3.6,0,5-0.9,5-2.4c0-4.3-16.3,0.1-16.3-10.4c0-5,4.6-8.5,12.5-8.5
		c3.7,0,7.8,0.8,10.4,2.3l-2.6,5.4c-2.7-1.5-5.3-2-7.8-2c-3.5,0-5,1.1-5,2.5c0,4.5,16.3,0.1,16.3,10.5c0,4.9-4.7,8.4-12.7,8.4
		C227.6,190.6,223,189.4,220.5,187.8z"/>
	<path class="st0" d="M309.3,175.1v15.1h-7.8v-13.9c0-4.3-2-6.2-5.1-6.2c-3.5,0-6,2.2-6,6.9v13.2h-7.8v-13.9c0-4.3-1.9-6.2-5.1-6.2
		c-3.5,0-5.9,2.2-5.9,6.9v13.2h-7.8v-26.4h7.5v3c2-2.3,5-3.4,8.5-3.4c3.8,0,7,1.4,8.9,4.3c2.2-2.7,5.7-4.3,9.7-4.3
		C304.7,163.5,309.3,167.1,309.3,175.1z"/>
	<path class="st0" d="M314.6,177c0-7.9,6.3-13.6,14.8-13.6c8.5,0,14.8,5.6,14.8,13.6s-6.2,13.6-14.8,13.6
		C320.8,190.6,314.6,185,314.6,177z M336.2,177c0-4.6-3-7.3-6.8-7.3c-3.9,0-6.9,2.7-6.9,7.3s3,7.3,6.9,7.3
		C333.3,184.3,336.2,181.6,336.2,177z"/>
	<path class="st0" d="M346.7,187.8l2.6-5.5c2.4,1.5,6,2.5,9.4,2.5c3.6,0,5-0.9,5-2.4c0-4.3-16.3,0.1-16.3-10.4c0-5,4.6-8.5,12.5-8.5
		c3.7,0,7.8,0.8,10.4,2.3l-2.6,5.4c-2.7-1.5-5.3-2-7.8-2c-3.5,0-5,1.1-5,2.5c0,4.5,16.3,0.1,16.3,10.5c0,4.9-4.7,8.4-12.7,8.4
		C353.8,190.6,349.2,189.4,346.7,187.8z"/>
	<path class="st0" d="M392.1,188.9c-1.6,1.1-4,1.7-6.3,1.7c-6.4,0-10.1-3.2-10.1-9.5V158h7.8v6.4h6.7v5.9h-6.7v10.7
		c0,2.3,1.2,3.5,3.3,3.5c1.2,0,2.3-0.3,3.2-1L392.1,188.9z"/>
	<path class="st0" d="M138.9,250c0,8.3-5.9,13.6-13.4,13.6c-3.3,0-6.1-1-8.1-3.2v12.3h-7.8v-35.9h7.5v3c2-2.3,4.9-3.4,8.5-3.4
		C133.1,236.5,138.9,241.8,138.9,250z M131,250c0-4.6-3-7.3-6.9-7.3s-6.9,2.7-6.9,7.3s3,7.3,6.9,7.3S131,254.6,131,250z"/>
	<path class="st0" d="M164.4,254.9l4.2,4.4c-2.5,2.8-6.3,4.3-11.1,4.3c-9.3,0-15.4-5.7-15.4-13.6c0-7.9,6.1-13.6,14.4-13.6
		c7.6,0,13.9,4.9,13.9,13.3l-19.9,3.8c1.1,2.6,3.6,3.9,7.2,3.9C160.5,257.5,162.6,256.7,164.4,254.9z M149.8,249.3l13.1-2.5
		c-0.8-2.7-3.1-4.5-6.4-4.5C152.6,242.2,149.9,244.8,149.8,249.3z"/>
	<path class="st0" d="M173.6,250c0-7.9,6.3-13.6,14.8-13.6c8.5,0,14.8,5.6,14.8,13.6s-6.2,13.6-14.8,13.6
		C179.9,263.6,173.6,258,173.6,250z M195.3,250c0-4.6-3-7.3-6.8-7.3c-3.9,0-6.9,2.7-6.9,7.3s3,7.3,6.9,7.3
		C192.3,257.3,195.3,254.6,195.3,250z"/>
	<path class="st0" d="M237.7,250c0,8.3-5.9,13.6-13.4,13.6c-3.3,0-6.1-1-8.1-3.2v12.3h-7.8v-35.9h7.5v3c2-2.3,4.9-3.4,8.5-3.4
		C231.9,236.5,237.7,241.8,237.7,250z M229.8,250c0-4.6-3-7.3-6.9-7.3s-6.9,2.7-6.9,7.3s3,7.3,6.9,7.3S229.8,254.6,229.8,250z"/>
	<path class="st0" d="M242.9,254.5v-27.6h7.8v27.2c0,2.3,1.2,3.5,3.4,3.5c0.8,0,1.8-0.2,2.2-0.5l0.3,5.9c-1.3,0.4-2.7,0.6-4,0.6
		C246.5,263.6,242.9,260.4,242.9,254.5z"/>
	<path class="st0" d="M280.2,254.9l4.2,4.4c-2.5,2.8-6.3,4.3-11.1,4.3c-9.3,0-15.4-5.7-15.4-13.6c0-7.9,6.1-13.6,14.4-13.6
		c7.6,0,13.9,4.9,13.9,13.3l-19.9,3.8c1.1,2.6,3.6,3.9,7.2,3.9C276.3,257.5,278.4,256.7,280.2,254.9z M265.6,249.3l13.1-2.5
		c-0.8-2.7-3.1-4.5-6.4-4.5C268.4,242.2,265.7,244.8,265.6,249.3z"/>
</g>
</svg>
